<svg width="272" height="52" viewBox="0 0 272 52" fill="none" xmlns="http://www.w3.org/2000/svg">
<rect x="0.5" y="0.5" width="271" height="31" rx="15.5" stroke="#D2D2D2"/>
<circle cx="16" cy="16" r="15" stroke="#D2D2D2" stroke-width="2"/>
<circle cx="256" cy="16" r="15" stroke="#D2D2D2" stroke-width="2"/>
<rect x="12" y="33" width="248" height="8" rx="4" fill="#D2D2D2"/>
<rect x="116" y="20" width="40" height="32" rx="16" fill="white"/>
<path d="M136 52C127.163 52 120 44.8375 120 36C120 27.1625 127.163 20 136 20C144.837 20 152 27.1625 152 36C152 44.8375 144.837 52 136 52ZM136 40C134.894 40 134 40.8937 134 42C134 43.1063 134.894 44 136 44C137.106 44 138 43.1063 138 42C138 40.8937 137.106 40 136 40ZM136 28C134.863 28 133.956 28.9688 134.038 30.1062L134.5 36.6063C134.556 37.3938 135.212 38 135.994 38C136.781 38 137.431 37.3938 137.487 36.6063L137.95 30.1062C138.031 28.9688 137.131 28 135.987 28H136Z" fill="#E2454C"/>
</svg>
